<?xml version="1.0" encoding="UTF-8"?>
<svg width="50px" height="50px" viewBox="0 0 50 50" version="1.1" xmlns="http://www.w3.org/2000/svg" xmlns:xlink="http://www.w3.org/1999/xlink">
    <!-- Generator: Sketch 51.3 (57544) - http://www.bohemiancoding.com/sketch -->
    <title>_final-01_jesse_fischer-logo-white-v01</title>
    <desc>Created with Sketch.</desc>
    <defs></defs>
    <g id="Page-1" stroke="none" stroke-width="1" fill="none" fill-rule="evenodd">
        <g id="iPad-main" transform="translate(-15.000000, -15.000000)" fill="#FFFFFE">
            <path d="M60.9208614,51.030339 C59.1264608,54.4409313 56.4734443,57.4584729 53.0283212,59.7331519 C49.014641,62.3828655 44.4956101,63.6483443 40.0225201,63.6487947 C36.1834456,63.6487947 32.3801031,62.7151118 28.969661,60.9208614 C25.5590687,59.1264608 22.5415271,56.4734443 20.2668481,53.0284714 C17.6171345,49.014641 16.3515056,44.4956101 16.3512053,40.0225201 C16.3512053,36.1834456 17.2848882,32.3801031 19.0791386,28.969661 C20.8735392,25.5590687 23.5265557,22.5415271 26.9715286,20.2668481 C30.985359,17.6171345 35.5043899,16.3516557 39.9774799,16.3512053 C43.8165544,16.3512053 47.6198969,17.2848882 51.030339,19.0791386 C54.4409313,20.8735392 57.4583228,23.5265557 59.7331519,26.9716788 C62.3828655,30.985359 63.6483443,35.5043899 63.6487947,39.9774799 C63.6487947,43.8165544 62.7151118,47.6198969 60.9208614,51.030339 M60.8608078,26.2271647 C58.4588152,22.5886691 55.2650164,19.7798136 51.6594002,17.883322 C48.0534837,15.98653 44.0354496,15.0001502 39.9774799,15.0000001 C35.2500631,14.9996998 30.4658956,16.3403957 26.2271647,19.1391922 C22.5886691,21.5411848 19.7798136,24.7348335 17.883322,28.3405998 C15.9863799,31.9465163 15.0000001,35.9645504 15.0000001,40.0225201 C14.9996998,44.7499369 16.3402455,49.5341044 19.1391922,53.7728353 C21.5411848,57.4113309 24.7348335,60.2201864 28.3405998,62.116678 C31.9463662,64.01347 35.9644003,64.9998498 40.0225201,64.9999999 C44.7499369,65.0003002 49.5341044,63.6597545 53.7728353,60.8608078 C57.4111807,58.4588152 60.2201864,55.2651665 62.116678,51.6594002 C64.01347,48.0534837 64.9998498,44.0355997 64.9999999,39.9774799 C65.0003002,35.2500631 63.6596043,30.4658956 60.8608078,26.2271647 M41.1660902,24.7821257 C41.9340251,24.7821257 42.6958047,24.9691926 43.3777129,25.3278625 C44.0597713,25.6869828 44.6618083,26.2159046 45.117765,26.9062204 C45.3232984,27.2175981 45.7424723,27.3034747 46.05385,27.0977913 C46.3652278,26.8922579 46.4509542,26.4732342 46.2454209,26.1618564 C45.6621506,25.278018 44.8838564,24.5932572 44.006774,24.1320458 C43.1293914,23.6706843 42.1530705,23.4310705 41.1660902,23.4309204 C40.0220697,23.4306201 38.8613844,23.7552097 37.8353692,24.4290107 C36.937268,25.0209888 36.2523571,25.7991329 35.7912958,26.6763653 C35.3297842,27.5535978 35.0901704,28.5300688 35.0901704,29.5168991 C35.08972,30.6663244 35.4168619,31.8325647 36.0969685,32.8621831 L40.1915709,39.063915 L39.063915,39.8084291 L34.9693126,33.6065471 C34.7637793,33.2951693 34.3446054,33.2094428 34.0332277,33.4149762 C33.7218499,33.6206596 33.6361234,34.0396834 33.8416568,34.3510612 L38.3085913,41.1166961 C38.3085913,41.1166961 39.7975694,43.3719077 42.7755258,47.882331 C43.3062492,48.6867486 43.558324,49.5880025 43.5586243,50.4831009 C43.5587744,51.2510359 43.3717076,52.0128154 43.0128875,52.6945735 C42.6537672,53.3766319 42.1248454,53.9786689 41.4345296,54.4347758 C40.6301121,54.9654992 39.7290083,55.217574 38.8337597,55.2178743 C38.0658247,55.2180244 37.3041953,55.0309576 36.6222871,54.6721375 C35.9402287,54.3130172 35.3381917,53.7840954 34.882235,53.0937796 C34.6765515,52.7824019 34.2575277,52.6966754 33.94615,52.9022087 C33.6347722,53.1077421 33.5490458,53.526916 33.7545791,53.8382937 C34.3378494,54.721982 35.1159935,55.4067428 35.993226,55.8679542 C36.8704585,56.3293157 37.8469295,56.5690796 38.8337597,56.5690796 C39.983185,56.56953 41.1494253,56.2423882 42.1790437,55.5622815 C43.062732,54.9790112 43.7474928,54.200717 44.2087042,53.3236347 C44.6700657,52.4464022 44.9098296,51.4700813 44.9098296,50.4831009 C44.9101298,49.3336756 44.5831381,48.1674353 43.9030315,47.1379671 L39.8084291,40.936085 L40.936085,40.1915709 L45.0306874,46.3934529 C45.2362207,46.7048307 45.6553946,46.7905572 45.9667723,46.5850238 C46.2781501,46.3794905 46.3638766,45.9603166 46.1583432,45.6489388 L42.0635907,39.4470568 L46.0103112,36.8414826 C46.3216889,36.6357991 46.4074154,36.2167754 46.2018821,35.9053976 C45.9961986,35.5940199 45.5771748,35.5082934 45.2657971,35.7138267 L41.3192267,38.319551 L37.2244742,32.117669 C36.6937508,31.3132514 36.441676,30.4121477 36.4413757,29.5168991 C36.4412256,28.7489641 36.6282924,27.9873347 36.9871125,27.3054265 C37.3462328,26.6233681 37.8750045,26.0213311 38.5654704,25.5653743 C39.3698879,25.0345008 40.2709917,24.782426 41.1660902,24.7821257 Z M31.2224204,29.7718265 C30.8000937,30.6184317 30.5813486,31.5516641 30.5811984,32.4948054 C30.5811984,32.6140117 30.5848017,32.7335183 30.591858,32.8530249 C30.6137775,33.2255072 30.9335628,33.5095605 31.306045,33.487641 C31.6785273,33.4655713 31.9625806,33.1457861 31.9406611,32.7733038 C31.9352563,32.680521 31.9324037,32.5875881 31.9324037,32.4948054 C31.9324037,31.7608007 32.103106,31.0332517 32.431599,30.3749144 C32.5980975,30.0410166 32.4623765,29.6352046 32.1284786,29.4687061 C31.7945808,29.3022076 31.3889189,29.4379287 31.2224204,29.7718265 Z" id="_final-01_jesse_fischer-logo-white-v01"></path>
        </g>
    </g>
</svg>