<?xml version="1.0" encoding="UTF-8"?>
<svg width="75px" height="75px" viewBox="0 0 75 75" version="1.1" xmlns="http://www.w3.org/2000/svg" xmlns:xlink="http://www.w3.org/1999/xlink">
    <!-- Generator: Sketch 51.3 (57544) - http://www.bohemiancoding.com/sketch -->
    <title>_final-01_jesse_fischer-logo-white-v01</title>
    <desc>Created with Sketch.</desc>
    <defs></defs>
    <g id="Page-1" stroke="none" stroke-width="1" fill="none" fill-rule="evenodd">
        <g id="iPad-main" transform="translate(-15.000000, -15.000000)" fill="#FFFFFE">
            <path d="M83.881292,69.0455086 C81.1896911,74.1613969 77.2101664,78.6877094 72.0424819,82.0997279 C66.0219616,86.0742982 59.2434151,87.9725164 52.5337801,87.973192 C46.7751685,87.973192 41.0701546,86.5726678 35.9544914,83.881292 C30.8386031,81.1896911 26.3122906,77.2101664 22.9002721,72.0427071 C18.9257018,66.0219616 17.0272584,59.2434151 17.026808,52.5337801 C17.026808,46.7751685 18.4273322,41.0701546 21.118708,35.9544914 C23.8103089,30.8386031 27.7898336,26.3122906 32.9572929,22.9002721 C38.9780384,18.9257018 45.7565849,17.0274836 52.4662199,17.026808 C58.2248315,17.026808 63.9298454,18.4273322 69.0455086,21.118708 C74.1613969,23.8103089 78.6874842,27.7898336 82.0997279,32.9575181 C86.0742982,38.9780384 87.9725164,45.7565849 87.973192,52.4662199 C87.973192,58.2248315 86.5726678,63.9298454 83.881292,69.0455086 M83.7912117,31.840747 C80.1882228,26.3830037 75.3975245,22.1697205 69.9891002,19.324983 C64.5802255,16.479795 58.5531744,15.0002253 52.4662199,15.0000001 C45.3750946,14.9995497 38.1988434,17.0105935 31.840747,21.2087883 C26.3830037,24.8117772 22.1697205,29.6022503 19.324983,35.0108998 C16.4795698,40.4197745 15.0000001,46.4468256 15.0000001,52.5337801 C14.9995497,59.6249054 17.0103683,66.8011566 21.2087883,73.159253 C24.8117772,78.6169963 29.6022503,82.8302795 35.0108998,85.675017 C40.4195493,88.520205 46.4466004,89.9997747 52.5337801,89.9999999 C59.6249054,90.0004503 66.8011566,87.9896317 73.159253,83.7912117 C78.6167711,80.1882228 82.8302795,75.3977497 85.675017,69.9891002 C88.520205,64.5802255 89.9997747,58.5533996 89.9999999,52.4662199 C90.0004503,45.3750946 87.9894065,38.1988434 83.7912117,31.840747 M50.3482056,30.8480615 C51.5548319,30.0517512 52.9064876,29.6736389 54.2491352,29.6731885 C55.4010377,29.6731885 56.543707,29.9537888 57.5665694,30.4917937 C58.589657,31.0304742 59.4927125,31.8238569 60.1766476,32.8593306 C60.4849476,33.3263972 61.1137084,33.4552121 61.580775,33.1466869 C62.0478417,32.8383869 62.1764314,32.2098512 61.8681314,31.7427846 C60.9932259,30.417027 59.8257846,29.3898858 58.5101611,28.6980687 C57.1940871,28.0060264 55.7296058,27.6466058 54.2491352,27.6463806 C52.5331045,27.6459302 50.7920765,28.1328145 49.2530537,29.1435161 L49.2528285,29.1428405 L49.2314344,29.1565777 C47.9059021,30.0314831 46.8785357,31.1986993 46.1869438,32.514548 C45.4946763,33.8303968 45.1352557,35.2951033 45.1352557,36.7753486 C45.1345801,38.4994866 45.6252928,40.248847 46.6454528,41.7932746 L52.7873563,51.0958725 L51.0958725,52.2126437 L44.953969,42.9098206 C44.645669,42.442754 44.0169081,42.3141643 43.5498415,42.6224643 C43.0827749,42.9309895 42.9541852,43.5595251 43.2624852,44.0265917 L49.9628869,54.1750441 C49.9628869,54.1750441 49.9628869,54.1750441 49.9628869,54.1750441 L56.6632886,64.3234965 C57.4593738,65.5301228 57.837486,66.8820037 57.8379364,68.2246514 C57.8381616,69.3765539 57.5575613,70.5192231 57.0193312,71.5418603 C56.4806507,72.5649479 55.687268,73.4680034 54.6517944,74.1521637 C54.6517944,74.1521637 54.6517944,74.1521637 54.6517944,74.1521637 C53.4451681,74.9482488 52.0935124,75.3263611 50.7506396,75.3268115 C49.5987371,75.3270367 48.456293,75.0464364 47.4334306,74.5082063 C46.410343,73.9695258 45.5072875,73.1761431 44.8233524,72.1406694 C44.5148272,71.6736028 43.8862916,71.5450131 43.419225,71.8533131 C42.9521583,72.1616131 42.8235686,72.790374 43.1318686,73.2574406 C44.0067741,74.582973 45.1739902,75.6101142 46.4898389,76.3019313 C47.8056877,76.9939736 49.2703942,77.3536194 50.7506396,77.3536194 C52.4747775,77.354295 54.2241379,76.8635823 55.7685656,75.8434223 C55.7685656,75.8434223 55.7685656,75.8434223 55.7685656,75.8434223 C57.0940979,74.9685169 58.1212391,73.8010755 58.8130562,72.485452 C59.5050985,71.1696032 59.8647443,69.7051219 59.8647443,68.2246514 C59.8651947,66.5005134 59.3747072,64.751153 58.3545472,63.2069506 L52.2126437,53.9041275 L53.9041275,52.7873563 L60.046031,62.0901794 C60.354331,62.557246 60.9830919,62.6858357 61.4501585,62.3775357 C61.9172251,62.0692357 62.0458148,61.4404749 61.7375148,60.9734083 L55.5953861,51.6705852 L61.5154668,47.7622239 C61.9825334,47.4536987 62.1111231,46.8251631 61.8028231,46.3580964 C61.4942979,45.8910298 60.8657622,45.7624401 60.3986956,46.0707401 L54.4788401,49.9793266 L48.3367114,40.6765035 C47.5406262,39.4698772 47.162514,38.1182215 47.1620636,36.7753486 C47.1618384,35.6234461 47.4424387,34.4810021 47.9806688,33.4581397 C48.5193493,32.4350521 49.3125068,31.5319966 50.3482056,30.8480615 M40.6927179,36.7030592 C40.1918712,36.4533114 39.5833784,36.656893 39.3336306,37.1577397 C38.7001406,38.4276475 38.3720229,39.8274962 38.3717977,41.2422081 C38.3717977,41.4210176 38.3772025,41.6002775 38.3877869,41.7795374 C38.4206663,42.3382607 38.9003441,42.7643408 39.4590675,42.7314615 C40.0177909,42.698357 40.443871,42.2186791 40.4109916,41.6599557 C40.4028844,41.5207816 40.3986056,41.3813822 40.3986056,41.2422081 C40.3986056,40.141201 40.654659,39.0498775 41.1473985,38.0623717 C41.3971463,37.5615249 41.1935647,36.9528069 40.6927179,36.7030592" id="_final-01_jesse_fischer-logo-white-v01"></path>
        </g>
    </g>
</svg>